# xmcd
#
# Track frame offsets:
#	150
#	34201
#	56357
#	94114
#	124639
#	145858
#	177867
#	209778
#	240109
#	264889
#	285857
#
# Disc length: 4199 seconds
#
# Revision: 1
# Processed by: cddbd v1.5.2PL0 Copyright (c) Steve Scherf et al.
# Submitted via: audiograbber 1.83.01
#
DISCID=8f10650b
DTITLE=Raz, Dwa, Trzy - 20 lat
DYEAR=2010
DGENRE=Pop
TTITLE0=Zgodnie z planem
TTITLE1=Dalej niz siega mysl
TTITLE2=Skad przybywasz
TTITLE3=Juz
TTITLE4=Tylko we mgle bladzi czlowiek
TTITLE5=Oto papieros w dloni
TTITLE6=Trudno nie wierzyc w nic
TTITLE7=I tylko to wiem
TTITLE8=Nazywaj rzeczy po imieniu
TTITLE9=Tak mowi pismo
TTITLE10=Jutro mozemy byc szczesliwi
EXTD=
EXTT0=
EXTT1=
EXTT2=
EXTT3=
EXTT4=
EXTT5=
EXTT6=
EXTT7=
EXTT8=
EXTT9=
EXTT10=
PLAYORDER=
